# xmcd
#
# Track frame offsets:
#	150
#	16598
#	34844
#	47913
#	63183
#	80424
#	94105
#	109046
#	128615
#	145124
#	158700
#
# Disc length: 2351 seconds
#
# Revision: 3478386745
# Processed by: cddbd v1.5.2PL0 Copyright (c) Steve Scherf et al.
# Submitted via: EZCDAudioConverter 8.1.0.1
#
DISCID=7f092d0b
DTITLE=Guy Clark - Somedays The Song Writes You
DYEAR=2009
DGENRE=Country
TTITLE0=Somedays You Write The Song
TTITLE1=The Guitar
TTITLE2=Hemingway's Whiskey
TTITLE3=The Coat
TTITLE4=All She Wants Is You
TTITLE5=If I Needed You
TTITLE6=Hollywood
TTITLE7=Eamon
TTITLE8=Wrong Side Of The Tracks
TTITLE9=One Way Ticket Down
TTITLE10=Maybe I Can Paint Over That
EXTD=
EXTT0=
EXTT1=
EXTT2=
EXTT3=
EXTT4=
EXTT5=
EXTT6=
EXTT7=
EXTT8=
EXTT9=
EXTT10=
PLAYORDER=
